<?xml version="1.0" encoding="UTF-8" standalone="no"?>
<!-- Created with Inkscape (http://www.inkscape.org/) -->

<svg
   xmlns:dc="http://purl.org/dc/elements/1.1/"
   xmlns:cc="http://creativecommons.org/ns#"
   xmlns:rdf="http://www.w3.org/1999/02/22-rdf-syntax-ns#"
   xmlns:svg="http://www.w3.org/2000/svg"
   xmlns="http://www.w3.org/2000/svg"
   xmlns:sodipodi="http://sodipodi.sourceforge.net/DTD/sodipodi-0.dtd"
   xmlns:inkscape="http://www.inkscape.org/namespaces/inkscape"
   width="566.83612mm"
   height="221.50377mm"
   viewBox="0 0 2008.4744 784.85587"
   id="svg2"
   version="1.1"
   inkscape:version="0.91 r13725"
   sodipodi:docname="lake_trout_reusable.svg">
  <defs
     id="defs4" />
  <sodipodi:namedview
     id="base"
     pagecolor="#ffffff"
     bordercolor="#666666"
     borderopacity="1.0"
     inkscape:pageopacity="0.0"
     inkscape:pageshadow="2"
     inkscape:zoom="0.25"
     inkscape:cx="1321.0364"
     inkscape:cy="-159.54579"
     inkscape:document-units="px"
     inkscape:current-layer="layer1"
     showgrid="false"
     fit-margin-top="0"
     fit-margin-left="0"
     fit-margin-right="0"
     fit-margin-bottom="0"
     inkscape:window-width="1920"
     inkscape:window-height="1017"
     inkscape:window-x="-8"
     inkscape:window-y="-8"
     inkscape:window-maximized="1" />
  <metadata
     id="metadata7">
    <rdf:RDF>
      <cc:Work
         rdf:about="">
        <dc:format>image/svg+xml</dc:format>
        <dc:type
           rdf:resource="http://purl.org/dc/dcmitype/StillImage" />
        <dc:title></dc:title>
      </cc:Work>
    </rdf:RDF>
  </metadata>
  <g
     inkscape:label="Layer 1"
     inkscape:groupmode="layer"
     id="layer1"
     transform="translate(787.65403,-205.32987)">
    <path
       style="fill:#000000;stroke:#000000;stroke-width:5;stroke-miterlimit:4;stroke-dasharray:none;stroke-opacity:1"
       d="m 344.85709,984.61944 c -4.4,-1.64341 -9.3177,-3.40983 -10.9283,-3.92538 -10.3311,-3.30704 -36.5162,-20.00853 -54.0717,-34.48831 -5.5,-4.53639 -15.3627,-13.58913 -21.9172,-20.11719 -6.5545,-6.52806 -13.1678,-12.7692 -14.6962,-13.8692 -1.5284,-1.1 -7.5789,-7.4 -13.4455,-14 -15.7946,-17.76897 -50.9159,-52.90494 -58.9411,-58.96562 -11.216,-8.47039 -16.1842,-10.54165 -27.86416,-11.61667 -25.95989,-2.38935 -41.33318,-2.91464 -99.135844,-3.38742 -75.12667,-0.61448 -102.44309,-1.17234 -121.5,-2.48131 -7.975,-0.54779 -24.399996,-1.47409 -36.499996,-2.05846 -12.1,-0.58437 -28.75,-1.59133 -37,-2.23769 -8.25,-0.64635 -19.275,-1.22152 -24.5,-1.27815 -5.225,-0.0566 -10.91944,-0.43789 -12.65432,-0.84726 -1.73488,-0.40936 -7.58488,-1.15024 -13,-1.64638 -5.41512,-0.49614 -13.67068,-1.42387 -18.34568,-2.06161 -4.675,-0.63774 -14.35,-1.24456 -21.5,-1.34848 -7.98053,-0.11599 -15.50973,-0.8117 -19.5,-1.80182 -3.575,-0.88707 -11.45,-1.91671 -17.5,-2.28809 -6.05,-0.37137 -14.14685,-1.30512 -17.99299,-2.075 -3.84614,-0.76987 -10.59614,-1.66634 -15,-1.99215 -8.72921,-0.6458 -18.53323,-2.36941 -31.0852,-5.46499 -4.443,-1.09574 -11.418,-2.61149 -15.5,-3.36834 -29.69968,-5.50663 -51.17417,-10.45057 -65.42181,-15.06165 -36.5232,-11.82029 -35.56719,-11.5746 -45,-11.56485 -16.39041,0.0169 -34.61318,-3.5695 -52.66973,-10.36597 -3.65578,-1.37603 -9.56343,-3.17827 -13.12811,-4.00497 -7.40998,-1.71849 -18.12332,-5.62739 -24.70216,-9.0129 -2.475,-1.27365 -7.65,-3.33593 -11.5,-4.58285 -3.85,-1.24692 -9.475,-3.48431 -12.5,-4.97199 -8.41748,-4.13967 -52.3941,-21.03636 -54.6644,-21.00316 -0.45958,0.007 -5.7856,-2.43441 -11.8356,-5.42474 -23.8772,-11.80175 -46.2874,-22.58748 -46.9316,-22.58748 -0.373,0 -3.241,-1.71921 -6.3733,-3.82046 -3.1323,-2.10126 -10.1951,-6.22521 -15.6951,-9.16434 -9.4753,-5.06347 -12.9237,-7.17322 -32,-19.57753 -4.4,-2.86109 -9.35,-5.88481 -11,-6.71937 -4.4164,-2.23382 -15.2383,-13.92435 -17.497,-18.90153 -1.4327,-3.15685 -1.965,-6.5469 -1.981,-12.61643 -0.015,-5.74128 -0.5333,-9.28617 -1.6806,-11.5 -2.318,-4.47247 -3.3232,-9.53781 -2.6075,-13.13907 0.7945,-3.99786 25.7681,-29.1611 29.9367,-30.16405 1.5562,-0.37441 8.4544,-3.60904 15.3294,-7.18807 25.5042,-13.27715 29.6555,-15.22121 36.5,-17.09316 3.85,-1.05295 9.925,-2.83088 13.5,-3.95094 20.9612,-6.56724 26.084,-8.1959 31.5,-10.01446 3.3,-1.10806 10.05,-3.15143 15,-4.54083 4.95,-1.38939 11.025,-3.195 13.5,-4.01245 2.475,-0.81745 8.55,-2.67225 13.5,-4.12179 4.95,-1.44953 12.375,-3.91037 16.5,-5.46851 4.125,-1.55815 13.125,-4.47723 20,-6.48685 6.875,-2.00961 15.425,-4.70621 19,-5.99243 3.575,-1.28623 9.875,-3.34576 14,-4.57673 4.125,-1.23098 9.975,-3.06949 13,-4.08558 3.025,-1.01609 8.65,-2.55813 12.5,-3.42675 3.85,-0.86862 10.825,-3.28379 15.5,-5.36706 6.18722,-2.75713 10.42314,-3.94243 15.56799,-4.35624 3.88739,-0.31267 9.73739,-1.52869 13,-2.70227 6.31142,-2.27025 9.91397,-3.04704 23.43201,-5.05244 4.675,-0.69354 10.975,-2.13161 14,-3.19572 11.3283,-3.98496 22.66862,-6.74049 27.78984,-6.75252 3.29495,-0.008 6.76825,-0.76665 9.21016,-2.01242 2.16764,-1.10585 5.89377,-2 8.33444,-2 2.42776,0 6.32726,-0.675 8.66556,-1.5 2.3383,-0.825 7.3824,-1.5 11.20911,-1.5 3.82672,0 10.40764,-0.87509 14.62428,-1.94464 4.21663,-1.06955 10.14161,-2.24191 13.16661,-2.60523 3.025,-0.36333 7.75,-1.28026 10.5,-2.03762 2.75,-0.75736 14,-1.84763 25,-2.42283 23.37553,-1.22232 32.67014,-2.13068 45,-4.39781 6.43453,-1.18315 11.56547,-1.4768 18,-1.03018 6.21004,0.43103 12.01912,0.1308 18.73923,-0.9685 5.35658,-0.87626 13.26392,-1.59319 17.57187,-1.59319 4.30794,0 9.82528,-0.63939 12.26076,-1.42087 2.64165,-0.84764 10.88317,-1.64509 20.42814,-1.97664 8.8,-0.30568 25,-1.22895 36,-2.05171 11,-0.82276 27.425,-1.77799 36.5,-2.12273 9.074996,-0.34474 18.224896,-1.05949 20.333096,-1.58835 4.41309,-1.10703 58.9875,-1.42217 71.6669,-0.41384 4.8213697,0.38343 11.7458497,0.20716 15.9999997,-0.40729 4.125,-0.5958 14.0250003,-1.20644 22.0000003,-1.35699 18.8783,-0.35637 24.43717,-2.0877 37.26167,-11.6053 13.27699,-9.85341 16.69501,-12.97524 19.90254,-18.17787 1.56713,-2.54187 4.63534,-5.80352 6.81826,-7.24811 2.18293,-1.44459 4.72981,-3.86488 5.65974,-5.37842 0.92993,-1.51353 5.79748,-6.80188 10.816764,-11.75188 5.01929,-4.95 12.48187,-13.24653 16.58351,-18.43674 4.10163,-5.1902 15.33252,-17.81573 24.95752,-28.05672 13.2848,-14.135 18.3708,-20.2924 21.1151,-25.56326 2.5412,-4.88079 5.2146,-8.2483 9,-11.33656 2.9617,-2.4163 6.6089,-6.33073 8.1048,-8.69872 1.496,-2.36799 3.5536,-4.75161 4.5726,-5.29695 1.019,-0.54533 3.071,-2.7496 4.5601,-4.89838 1.4891,-2.14877 3.7134,-4.4452 4.9428,-5.10316 1.2294,-0.65797 4.4784,-3.91912 7.2199,-7.24701 2.7416,-3.32789 6.2408,-6.70456 7.7761,-7.5037 1.5353,-0.79915 5.1946,-3.62931 8.1318,-6.28925 2.9372,-2.65993 8.431,-6.46069 12.2086,-8.44612 3.7775,-1.98544 9.2069,-5.52872 12.0653,-7.87397 4.1662,-3.41829 6.9431,-4.71413 14,-6.53289 11.0567,-2.84968 14.8808,-2.82026 21.6343,0.16643 7.517,3.32439 12.6821,10.94322 19.2005,28.32181 1.4018,3.73735 5.4665,12.08093 9.0327,18.54127 3.5661,6.46035 6.7511,13.21035 7.0777,15 0.3267,1.78966 4.2895,10.45392 8.8063,19.25392 4.5169,8.8 10.1831,20.4167 12.5916,25.81489 2.4084,5.39819 5.8183,11.49636 7.5774,13.55149 1.7591,2.05512 3.7278,5.73842 4.3748,8.1851 0.647,2.44669 2.4884,6.51292 4.092,9.03607 1.6036,2.52315 2.9238,5.22315 2.9337,6 0.01,0.77685 1.4001,3.88745 3.0891,6.91245 6.6196,11.85526 13.5991,25.62111 14.1965,28 0.3453,1.375 2.1706,4.88598 4.0563,7.80219 3.7722,5.83358 5.259,12.43944 3.7143,16.50227 -1.0749,2.82722 -9.8113,7.84883 -15.9799,9.18508 -1.8731,0.40576 -6.5854,2.2616 -10.4718,4.1241 -5.1544,2.47017 -8.434,3.38636 -12.1219,3.38636 -2.84,0 -5.9796,0.64716 -7.1639,1.47667 -2.6136,1.83062 -3.7306,5.91907 -2.3314,8.5335 2.1376,3.99401 6.9918,5.49115 25.7653,7.94644 3.9988,0.523 7.7675,1.258 8.3749,1.63335 1.3279,0.82074 13.8506,2.97544 22.8544,3.93245 6.6432,0.70609 19.0146,3.10283 33.7887,6.54591 4.5588,1.06242 10.8925,1.93168 14.0749,1.93168 3.5055,0 8.6107,0.96071 12.9523,2.43739 3.9414,1.34056 9.3077,2.71831 11.9252,3.06165 2.6174,0.34335 8.1339,1.26001 12.2589,2.03701 4.125,0.77701 11.1949,2.10939 15.7108,2.96084 4.516,0.85146 11.266,1.9611 15,2.46587 13.0474,1.76375 24.8477,4.13718 32.2892,6.49444 4.125,1.30669 11.325,2.8964 16,3.53268 4.675,0.63629 11.2,1.77691 14.5,2.53471 21.6003,4.96026 37.3461,5.56318 50.8035,1.94531 3.1919,-0.85811 8.5919,-1.9456 12,-2.41663 3.4081,-0.47103 8.8965,-1.32662 12.1965,-1.9013 30.6291,-5.33395 46.7407,-5.51878 56.9497,-0.65332 9.2044,4.3867 20.9552,18.05908 22.2201,25.85384 0.4814,2.9665 0.1012,3.66086 -3.6173,6.60596 -3.794,3.00484 -4.1291,3.64107 -3.8539,7.31632 0.4218,5.63299 3.2835,7.46819 13.8014,8.85076 4.675,0.61452 11.425,1.90431 15,2.86618 3.575,0.96188 9.2,2.2872 12.5,2.94517 23.2515,4.63595 31.8317,6.00804 37.7314,6.03377 3.7023,0.0161 9.8708,0.56768 13.7076,1.22563 6.3819,1.09437 7.5548,1.00795 13.7686,-1.01449 3.7358,-1.21592 8.4095,-2.20425 10.3858,-2.19628 4.9114,0.0198 12.1323,-2.61606 26.9966,-9.85454 6.9245,-3.37203 12.9234,-6.13097 13.331,-6.13097 0.4075,0 13.0053,-6.05234 27.9952,-13.44964 14.9898,-7.39729 29.4659,-14.32691 32.169,-15.39914 2.7031,-1.07224 12.5648,-5.64737 21.9148,-10.16697 18.7455,-9.06121 27.2399,-12.81309 38.5,-17.005 4.125,-1.53566 8.85001,-3.50644 10.50001,-4.37952 1.65,-0.87307 3.45,-1.59172 4,-1.597 1.345,-0.0129 15.603,-5.84843 16.9398,-6.93314 0.5831,-0.47314 4.2102,-1.82051 8.0602,-2.99415 3.85,-1.17364 12.175,-4.42901 18.5,-7.23417 14.6305,-6.48868 19.9308,-8.27343 33.5,-11.28028 6.05,-1.34065 13.925,-3.76134 17.5,-5.37931 3.575,-1.61798 8.75,-3.48029 11.5,-4.13847 2.75,-0.65819 7.7,-1.85147 11,-2.65175 7.4587,-1.8088 24.506,-4.95757 34.6611,-6.40219 12.6717,-1.80261 47.1656,2.29142 54.8389,6.50873 5.4531,2.99706 5.3741,4.2973 -0.8058,13.263 -3.1318,4.54355 -7.9074,11.51855 -10.6123,15.5 -2.705,3.98145 -5.7506,8.364 -6.7681,9.739 -1.0174,1.375 -3.1646,4.3 -4.7715,6.5 -10.9539,14.99708 -21.9501,27.39668 -26.2478,29.59756 -2.0379,1.0437 -4.9629,3.56228 -6.5,5.59684 -1.537,2.03456 -4.2177,5.07314 -5.9572,6.7524 -7.968,7.69228 -17.2432,15.76938 -21.5542,18.77003 -5.8908,4.10029 -17.5065,13.61835 -24.9207,20.4204 -3.1007,2.84466 -6.7003,5.74081 -7.999,6.43589 -10.0296,5.36767 -37.1041,31.87771 -38.4745,37.67237 -0.3582,1.51498 -1.5448,3.73939 -2.6368,4.94314 -3.355,3.69843 -6.7521,15.84401 -6.7521,24.14093 0,5.84648 0.5023,8.3728 2.3927,12.03511 1.316,2.54943 2.96,6.13247 3.6532,7.96231 0.6933,1.82984 3.2469,5.87984 5.6747,9 2.4278,3.12016 5.8213,8.30692 7.5411,11.52612 4.0523,7.58533 17.4951,22.6136 27.9754,31.27474 9.7953,8.09508 28.6647,27.01596 33.0958,33.18616 1.7246,2.40148 6.1604,6.56631 9.8572,9.25519 4.4199,3.21476 7.983,6.86505 10.4052,10.65984 2.026,3.17403 7.5584,9.62137 12.2942,14.32741 4.7358,4.70605 11.7605,12.29669 15.6105,16.86811 3.85,4.57141 8.6233,10.17101 10.6074,12.44356 5.2421,6.00426 12.4938,19.14676 15.2794,27.69141 2.1409,6.56699 2.2613,7.72029 1.0505,10.06165 -0.7521,1.45447 -2.3957,2.89892 -3.6524,3.20988 -5.8089,1.4374 -25.0748,2.7501 -32.2849,2.19977 -7.5675,-0.5776 -11.699,-1.08743 -29.5,-3.64034 -10.5834,-1.51779 -24.0164,-4.85509 -26.7489,-6.6455 -1.2733,-0.8343 -5.5975,-1.83829 -9.6093,-2.2311 -5.5181,-0.54028 -9.3932,-1.72072 -15.9138,-4.84765 -4.7408,-2.27341 -10.5586,-4.568 -12.9284,-5.0991 -2.3699,-0.5311 -9.0267,-3.01347 -14.7928,-5.51638 -5.7662,-2.50291 -11.1348,-4.55075 -11.9304,-4.55075 -0.7955,0 -4.4007,-1.51424 -8.0114,-3.36498 -3.6108,-1.85074 -8.9799,-4.15432 -11.9315,-5.11907 -4.6517,-1.52043 -19.2345,-8.57018 -28.63351,-13.8422 -4.4898,-2.51839 -36.2235,-17.453 -38.7802,-18.25087 -1.2209,-0.38099 -3.7621,-2.0383 -5.6471,-3.6829 -1.885,-1.64459 -5.035,-3.64086 -7,-4.43615 -1.965,-0.79528 -7.8477,-3.60075 -13.0727,-6.23437 -5.225,-2.63361 -11.1951,-5.33904 -13.2669,-6.01205 -2.0718,-0.67302 -6.2964,-2.74686 -9.388,-4.60854 -3.0917,-1.86168 -7.2466,-3.89993 -9.2331,-4.52944 -5.4257,-1.71929 -57.251,-27.39926 -67.9683,-33.67898 -13.6251,-7.98351 -26.2686,-13.1881 -35.2003,-14.48991 -6.1865,-0.90168 -10.8687,-0.78576 -24.5441,0.60766 -9.2946,0.94705 -28.5993,2.80465 -42.8993,4.128 -14.3,1.32335 -28.682,3.10532 -31.9601,3.95994 -3.2781,0.85463 -7.5531,1.56454 -9.5,1.5776 -1.9469,0.0131 -6.2399,1.13631 -9.5399,2.49612 -3.3,1.35981 -7.575,2.75722 -9.5,3.10534 -4.6749,0.84543 -8.8601,3.35854 -9.6293,5.78219 -1.025,3.22937 4.6489,7.58977 9.8951,7.60448 5.6207,0.0157 14.4613,2.43114 16.867,4.60835 1.0625,0.96151 2.8811,3.28428 4.0414,5.16172 1.9755,3.19632 2.0323,3.86864 0.8927,10.56579 -0.6694,3.93375 -2.3071,12.10227 -3.6393,18.15227 -5.4707,24.84429 -5.7782,28.11454 -5.7823,61.5 0,27.81307 0.2512,32.99039 2.1754,44.23346 1.1986,7.0034 2.1793,13.42251 2.1793,14.2647 0,0.84218 -1.4625,2.42294 -3.25,3.5128 -3.9018,2.37899 -10.7697,2.59902 -16.6263,0.53267 -2.2703,-0.80101 -6.9394,-1.9592 -10.3758,-2.57377 -10.4698,-1.87244 -29.9266,-6.78703 -35.7479,-9.02955 -3.025,-1.16531 -10,-4.27677 -15.5,-6.91436 -5.5,-2.63759 -12.6157,-5.96046 -15.8127,-7.38417 -7.9664,-3.54764 -39.052,-22.21036 -45.191,-27.13105 -2.752,-2.2059 -7.477,-5.8987 -10.5,-8.20622 -3.023,-2.30753 -10.2213,-8.54627 -15.9963,-13.86388 -5.775,-5.31761 -12.8388,-11.30464 -15.6974,-13.3045 -2.8585,-1.99987 -8.8171,-6.46591 -13.2414,-9.92453 -4.4242,-3.45862 -10.8604,-7.62076 -14.3026,-9.24921 -5.4808,-2.59283 -7.369,-2.96091 -15.1929,-2.9616 -9.9716,-8.8e-4 -16.0968,2.10847 -19.0032,6.5442 -2.2178,3.38479 -12.4399,8.32855 -20.844,10.08085 -3.8586,0.80453 -7.8825,1.92675 -8.9421,2.49383 -2.4783,1.32632 -25.7044,8.88033 -27.3042,8.88033 -0.6677,0 -5.8846,1.35007 -11.5931,3.00015 -5.7085,1.65009 -16.2291,4.14536 -23.3791,5.54504 -7.15,1.39969 -16.4018,3.41231 -20.5595,4.47249 -4.1577,1.06019 -11.1327,2.35878 -15.5,2.88576 -4.3673,0.52698 -11.7655,1.47623 -16.4405,2.10945 -4.675,0.63321 -10.4449,1.37179 -12.8221,1.64129 -5.1,0.57818 -8.1779,3.25917 -8.1779,7.12331 0,4.35942 2.4185,6.77703 9.6925,9.68901 15.1399,6.06092 27.7616,16.2245 36.7811,29.61788 1.6355,2.42859 4.898,6.91863 7.25,9.97786 2.352,3.05922 4.2764,6.3417 4.2764,7.29438 0,0.95269 2.6419,7.89968 5.8709,15.43777 3.229,7.53809 7.07,16.85561 8.5357,20.70561 1.4656,3.85 3.2761,8.378 4.0234,10.06223 0.7472,1.68422 3.0018,8.79315 5.0103,15.79761 2.0085,7.00446 5.4791,17.32646 7.7126,22.93777 2.2334,5.61132 4.9502,12.45239 6.0372,15.20239 1.0871,2.75 2.6141,5.71043 3.3932,6.57874 3.1028,3.45773 1.7988,3.92301 -10.8333,3.8653 -11.0718,-0.0506 -13.0194,-0.34334 -20.25,-3.04396 z"
       id="path4147"
       inkscape:connector-curvature="0" />
  </g>
</svg>
