<?xml version="1.0" encoding="UTF-8" standalone="no"?>
<!-- Created with Inkscape (http://www.inkscape.org/) -->

<svg
   xmlns:dc="http://purl.org/dc/elements/1.1/"
   xmlns:cc="http://creativecommons.org/ns#"
   xmlns:rdf="http://www.w3.org/1999/02/22-rdf-syntax-ns#"
   xmlns:svg="http://www.w3.org/2000/svg"
   xmlns="http://www.w3.org/2000/svg"
   xmlns:sodipodi="http://sodipodi.sourceforge.net/DTD/sodipodi-0.dtd"
   xmlns:inkscape="http://www.inkscape.org/namespaces/inkscape"
   width="276.22641mm"
   height="99.854462mm"
   viewBox="0 0 978.75497 353.81502"
   id="svg2"
   version="1.1"
   inkscape:version="0.91 r13725"
   sodipodi:docname="sucker_nice.svg">
  <defs
     id="defs4" />
  <sodipodi:namedview
     id="base"
     pagecolor="#ffffff"
     bordercolor="#666666"
     borderopacity="1.0"
     inkscape:pageopacity="0.0"
     inkscape:pageshadow="2"
     inkscape:zoom="3.959798"
     inkscape:cx="140.15673"
     inkscape:cy="74.752996"
     inkscape:document-units="px"
     inkscape:current-layer="layer1"
     showgrid="false"
     fit-margin-top="0"
     fit-margin-left="0"
     fit-margin-right="0"
     fit-margin-bottom="0"
     inkscape:window-width="1920"
     inkscape:window-height="1017"
     inkscape:window-x="-8"
     inkscape:window-y="-8"
     inkscape:window-maximized="1" />
  <metadata
     id="metadata7">
    <rdf:RDF>
      <cc:Work
         rdf:about="">
        <dc:format>image/svg+xml</dc:format>
        <dc:type
           rdf:resource="http://purl.org/dc/dcmitype/StillImage" />
        <dc:title></dc:title>
      </cc:Work>
    </rdf:RDF>
  </metadata>
  <g
     inkscape:label="Layer 1"
     inkscape:groupmode="layer"
     id="layer1"
     transform="translate(298.96928,-328.03006)">
    <path
       style="fill:#000000;stroke:#000000;stroke-width:5;stroke-miterlimit:4;stroke-dasharray:none;stroke-opacity:1"
       d="m -36.714293,678.05931 c -20.49228,-3.19013 -40.56667,-22.33536 -58.99108,-56.26062 -3.87194,-7.12949 -9.280937,-18.07296 -12.019977,-24.31882 -7.03131,-16.03357 -7.50603,-16.43011 -21.34932,-17.83357 -6.19126,-0.62768 -19.10546,-1.14805 -28.69823,-1.15637 -15.45196,-0.0134 -18.98127,-0.34645 -30.9414,-2.91976 -7.425,-1.59755 -15.80613,-3.57568 -18.62473,-4.39585 -2.81859,-0.82016 -9.7936,-1.78971 -15.5,-2.15454 -5.7064,-0.36483 -14.16431,-1.57819 -18.79535,-2.69635 -6.87891,-1.66092 -9.09657,-1.83035 -12.11602,-0.9257 -10.43674,3.12692 -19.78767,0.14714 -26.299,-8.38049 -1.86141,-2.43783 -5.69021,-6.25506 -8.50843,-8.48273 -2.81822,-2.22768 -5.86402,-5.17967 -6.76844,-6.55999 -1.51515,-2.31242 -1.51849,-2.84211 -0.0424,-6.73956 0.88108,-2.32645 1.8791,-6.9299 2.21783,-10.2299 0.33872,-3.3 1.08914,-7.575 1.6676,-9.5 2.37683,-7.90967 11.43875,-15.65599 21.6336,-18.49285 12.5602,-3.49507 20.44425,-6.87976 24.79367,-10.64416 2.9885,-2.58652 5.43,-3.86299 7.38877,-3.86299 1.60898,0 9.34411,-2.63777 17.18918,-5.86172 23.87359,-9.8109 45.74913,-16.55391 77.76375,-23.9702 30.22748,-7.0023 39.97626,-8.81597 60.500007,-11.25549 16.09494,-1.9131 25.32159,-2.20691 87.1783701,-2.77606 79.7033699,-0.73337 71.9437299,0.40979 78.5399699,-11.57062 2.04509,-3.71439 5.20784,-8.40212 7.02834,-10.41719 1.82049,-2.01507 5.05861,-6.81038 7.19581,-10.65624 17.067883,-30.71334 48.556733,-70.15579 57.557513,-72.09564 1.375,-0.29634 4.60955,-1.18186 7.1879,-1.96782 6.43509,-1.96162 17.09885,-1.84921 21.10504,0.22246 7.23686,3.74233 15.78526,12.77305 23.26947,24.58242 1.71318,2.70322 5.31808,6.35124 8.18218,8.28003 2.81587,1.89632 5.93778,4.85018 6.93759,6.56414 0.9998,1.71395 3.84282,4.16045 6.31782,5.43667 2.475,1.27621 6.75,4.64383 9.5,7.48359 2.75,2.83977 6.68935,6.03696 8.7541,7.10486 2.56746,1.3279 4.74521,3.69778 6.88958,7.49741 1.77937,3.15286 4.74408,6.62028 6.85472,8.01704 2.04557,1.3537 5.21446,4.58101 7.04196,7.17181 1.8275,2.5908 4.76172,6.33923 6.52049,8.32984 5.19275,5.87725 5.91941,9.51818 3.39514,17.01137 -2.78839,8.27719 -3.55828,9.69963 -7.50674,13.86934 -7.0014,7.39372 -5.43481,11.38715 5.05075,12.87499 14.30089,2.02921 28.56294,4.40601 49,8.16594 11.55,2.12492 27.3,4.78249 35,5.9057 7.7,1.12321 17.825,2.7191 22.5,3.54642 4.675,0.82732 10.63132,1.50483 13.23626,1.50558 2.60494,7.5e-4 11.15494,0.97018 19,2.15429 11.9754,1.80753 18.99645,2.1685 43.76374,2.25 l 29.5,0.0971 15,-3.6776 c 8.25,-2.02268 17.6106,-4.19688 20.80133,-4.83155 3.90389,-0.77653 14.69721,-5.64954 33,-14.89896 25.18076,-12.72524 34.3119,-16.70368 61.19867,-26.66433 16.62651,-6.15957 36.73932,-11.43186 43.5,-11.40291 5.79517,0.0248 12.66406,3.14393 14.1616,6.43067 1.63274,3.58348 -1.03041,12.70406 -6.87489,23.54468 -7.28538,13.51325 -12.00744,19.72371 -24.33089,32 -13.58103,13.52906 -14.83519,15.20459 -19.44829,25.98241 -4.32961,10.11549 -4.52279,15.07734 -0.86824,22.30083 4.12705,8.15742 10.3557,15.61949 26.96972,32.31036 8.46504,8.50421 15.39099,15.83776 15.39099,16.29679 0,0.45903 1.39385,2.58398 3.09745,4.72211 3.35393,4.2094 8.90255,15.63357 8.90255,18.32965 0,2.30453 -5.73536,7.63756 -10.22972,9.51211 -6.14224,2.56187 -18.66084,2.23241 -30.27028,-0.79664 -23.97407,-6.25513 -63.02283,-22.73469 -97.40951,-41.10927 -33.2458,-17.76494 -44.30811,-21.55054 -71.59049,-24.49877 -20.98493,-2.2677 -30.27637,-2.5477 -35.43629,-1.06785 -7.28889,2.09042 -6.18961,4.92707 3.86932,9.9846 4.22318,2.12337 8.30253,4.61258 9.06522,5.53156 0.7627,0.91899 3.24963,2.95261 5.52652,4.51915 2.27689,1.56654 5.90277,5.62117 8.05751,9.01029 4.32149,6.79712 15.56771,18.66839 22.47522,23.72437 2.44338,1.78844 8.0425,6.14697 12.4425,9.68562 17.1055,13.75691 16.69533,13.17166 14.36143,20.49168 -2.09773,6.57935 -3.27375,8.2407 -7.28015,10.28462 -3.56337,1.81789 -5.07733,1.9591 -14.34681,1.33818 -9.93858,-0.66575 -10.57049,-0.58571 -15.42763,1.95402 -4.37699,2.28866 -5.96349,2.58881 -11.68571,2.2108 -28.06199,-1.85379 -63.71696,-16.29341 -98.79879,-40.01173 -5.04772,-3.41269 -12.43078,-8.19897 -16.4068,-10.63619 -3.97602,-2.43721 -9.97107,-6.71579 -13.32233,-9.50795 -15.94411,-13.28412 -17.77934,-14.11755 -23.89287,-10.85049 -3.67933,1.96623 -14.84618,2.1932 -40.8403,0.83012 -15.46723,-0.81108 -15.65289,-0.79597 -16.81139,1.36871 -1.4508,2.71084 -0.2462,6.811 3.9406,13.41291 1.68501,2.65698 3.21812,6.76051 3.59928,9.63384 0.56051,4.22532 0.23839,5.90422 -2.06697,10.77322 -4.00656,8.46198 -20.92565,25.8477 -30.02156,30.84956 -1.65,0.90734 -4.17115,2.74395 -5.60254,4.08136 -5.49909,5.13801 -22.421,3.91034 -34.37364,-2.49378 -11.62647,-6.22936 -26.32586,-25.80951 -42.04447,-56.00482 -2.10112,-4.03624 -4.75603,-7.93654 -5.89979,-8.66733 -1.56666,-1.001 -12.31502,-1.59757 -43.579563,-2.41881 -22.825,-0.59956 -46.675,-1.51797 -53,-2.04093 -6.325,-0.52296 -20.36581,-1.21188 -31.2018099,-1.53094 l -19.7018001,-0.58011 -1.66153,2.53581 c -1.56233,2.38442 -1.53942,2.93893 0.38374,9.28837 4.7112001,15.55431 5.4419301,21.01816 4.3134201,32.25256 -0.58011,5.775 -1.77895,14.775 -2.6640901,20 -1.06729,6.30025 -1.44057,12.67494 -1.10826,18.92632 0.42496,7.9944 0.20734,10.00208 -1.43256,13.21656 -1.0635,2.08464 -2.80259,4.25529 -3.86463,4.82368 -2.39456,1.28153 -10.21414,1.12083 -20.06248,-0.41231 z"
       id="path4147"
       inkscape:connector-curvature="0" />
  </g>
</svg>
