<?xml version="1.0" encoding="UTF-8" standalone="no"?>
<!-- Created with Inkscape (http://www.inkscape.org/) -->

<svg
   xmlns:dc="http://purl.org/dc/elements/1.1/"
   xmlns:cc="http://creativecommons.org/ns#"
   xmlns:rdf="http://www.w3.org/1999/02/22-rdf-syntax-ns#"
   xmlns:svg="http://www.w3.org/2000/svg"
   xmlns="http://www.w3.org/2000/svg"
   xmlns:sodipodi="http://sodipodi.sourceforge.net/DTD/sodipodi-0.dtd"
   xmlns:inkscape="http://www.inkscape.org/namespaces/inkscape"
   width="258.84308mm"
   height="120.99984mm"
   viewBox="0 0 917.16055 428.73959"
   id="svg2"
   version="1.1"
   inkscape:version="0.91 r13725"
   sodipodi:docname="yellow_perch_reusable.svg">
  <defs
     id="defs4" />
  <sodipodi:namedview
     id="base"
     pagecolor="#ffffff"
     bordercolor="#666666"
     borderopacity="1.0"
     inkscape:pageopacity="0.0"
     inkscape:pageshadow="2"
     inkscape:zoom="0.7"
     inkscape:cx="605.32935"
     inkscape:cy="190.29027"
     inkscape:document-units="px"
     inkscape:current-layer="layer1"
     showgrid="false"
     fit-margin-top="0"
     fit-margin-left="0"
     fit-margin-right="0"
     fit-margin-bottom="0"
     inkscape:window-width="1920"
     inkscape:window-height="1017"
     inkscape:window-x="-8"
     inkscape:window-y="-8"
     inkscape:window-maximized="1" />
  <metadata
     id="metadata7">
    <rdf:RDF>
      <cc:Work
         rdf:about="">
        <dc:format>image/svg+xml</dc:format>
        <dc:type
           rdf:resource="http://purl.org/dc/dcmitype/StillImage" />
        <dc:title></dc:title>
      </cc:Work>
    </rdf:RDF>
  </metadata>
  <g
     inkscape:label="Layer 1"
     inkscape:groupmode="layer"
     id="layer1"
     transform="translate(439.866,-288.56385)">
    <path
       style="fill:#000000"
       d="m 115.72546,715.00658 c -0.97189,-1.4833 -1.83,-5.59868 -2.15447,-10.33254 -0.44964,-6.56019 0.16935,-11.64364 3.7254,-30.59475 3.46427,-18.46198 4.05252,-23.19292 3.13441,-25.20796 -1.32247,-2.9025 -11.9191,-8.02744 -19.62346,-9.49065 -2.742975,-0.52095 -7.467975,-1.82724 -10.499995,-2.90286 -3.032031,-1.07563 -9.562771,-2.81497 -14.512771,-3.8652 -4.950001,-1.05023 -11.025001,-2.64506 -13.500001,-3.54407 -2.475,-0.89901 -13.725001,-4.56114 -25.000002,-8.13807 -17.883358,-5.6734 -28.4238684,-9.75017 -58.000008,-22.43274 -3.575,-1.533 -8.975,-3.69811 -12,-4.81137 -3.025,-1.11325 -9.55,-3.52088 -14.5,-5.35029 -12.04209,-4.45048 -18.45198,-4.54731 -24.12173,-0.36437 -2.2365,1.65 -6.62387,6.01883 -9.74973,9.7085 -3.59853,4.24761 -9.41603,9.29431 -15.85878,13.75754 -9.858443,6.82946 -10.319453,7.02993 -14.800013,6.43556 -3.97281,-0.52701 -5.40029,-0.17572 -10.12804,2.49246 -6.53803,3.68984 -7.06931,3.73688 -10.82702,0.95868 -2.82607,-2.0894 -3.06074,-2.10405 -8.70951,-0.54372 -3.19285,0.88194 -8.28018,1.89192 -11.30518,2.24439 -6.59605,0.76857 -11.72549,1.90738 -18.69146,4.14979 -6.71547,2.16177 -9.70559,0.95245 -12.26008,-4.95844 -1.53145,-3.54366 -1.9469,-8.20881 -2.51528,-28.24476 -0.70227,-24.75527 -0.60238,-25.89068 3.51886,-40.00001 3.54032,-12.12049 3.61264,-14.92623 0.46582,-18.07305 l -2.72511,-2.72511 -14.77591,0.66676 c -9.11732,0.41142 -17.78998,1.41208 -22.64638,2.61297 -4.32876,1.07042 -12.63589,2.36895 -18.46028,2.88561 -17.4769,1.55034 -31.77661,8.26687 -59.1902,27.80147 -18.30162,13.04152 -52.49979,35.699 -58.31241,38.634 -2.80083,1.41424 -11.77187,5.34847 -19.93565,8.74273 l -14.84323,6.1714 -13.56435,-0.40821 c -15.25659,-0.45914 -17.83216,-1.30233 -23.02437,-7.5377 -2.97273,-3.56997 -3.10683,-4.09051 -2.51703,-9.77086 2.07834,-20.01672 3.6225,-28.86043 5.81034,-33.27698 1.28681,-2.59767 3.85847,-8.54803 5.71479,-13.22303 2.58633,-6.51345 4.7177,-9.94379 9.11967,-14.67764 7.39118,-7.94843 13.85237,-21.09354 13.78835,-28.05198 -0.0241,-2.62371 -0.65019,-6.46973 -1.39122,-8.54672 -1.53804,-4.31088 -12.2262,-21.33499 -24.9057,-39.66979 -7.21813,-10.43755 -11.26565,-20.11917 -13.62265,-32.58522 l -2.19708,-11.62024 2.65659,-5.42988 c 1.46112,-2.98643 3.41786,-5.83729 4.34831,-6.33525 0.93044,-0.49796 5.2836,-1.20134 9.67368,-1.56306 14.16422,-1.16707 28.21084,2.73612 53.98196,15.0002 6.6,3.14084 15.75852,7.01233 20.35224,8.60332 4.59373,1.59099 13.44819,5.59216 19.67657,8.89151 6.22838,3.29934 15.51988,7.51752 20.64777,9.37374 5.12789,1.85621 13.51574,4.99137 18.63968,6.96701 5.12393,1.97563 12.77393,4.19595 17,4.93404 8.66774,1.51383 31.52718,1.38776 58.68375,-0.32364 9.35,-0.58923 22.85,-1.29197 30.00001,-1.56164 7.15,-0.26966 14.00005,-0.7015 15.22232,-0.95964 5.72685,-1.20947 8.221,-8.9821 4.25,-13.24446 -2.22383,-2.38701 -2.67119,-2.50987 -14.87426,-4.08516 -8.42444,-1.08751 -12.68535,-2.8764 -13.80579,-5.79623 -1.31722,-3.43261 2.78913,-16.03517 7.96552,-24.44653 6.53808,-10.62402 26.57757,-30.86832 39.49793,-39.90161 5.09065,-3.55913 12.05072,-8.42149 15.46683,-10.80524 4.92643,-3.43765 6.83847,-4.23375 9.24428,-3.84894 7.24965,1.15959 23.381103,8.113 37.638143,16.22381 13.94744,7.93468 16.5704,9.89087 27.89503,20.80405 6.875,6.62521 14.29359,14.32043 16.48574,17.1005 4.84989,6.15056 6.21549,7.27812 9.8049,8.09576 4.58722,1.04493 7.70711,-1.70882 7.72018,-6.81414 0.006,-2.32482 0.70362,-6.47695 1.55039,-9.22695 0.84675,-2.75 1.54902,-7.31302 1.5606,-10.14004 0.0196,-4.79424 0.2934,-5.35889 4.06921,-8.39322 5.5801796,-4.48435 8.2008696,-10.67471 7.3618896,-17.38962 -0.56208,-4.49874 -0.36539,-5.43684 1.49247,-7.11818 3.27183,-2.96096 4.34449,-5.45734 4.92377,-11.45894 0.50645,-5.24714 0.66879,-5.51261 3.53086,-5.77421 5.58778,-0.51073 7.4553004,-1.24765 10.9599104,-4.32473 2.7637,-2.42657 3.74936,-4.29386 4.70257,-8.90882 1.13077,-5.47468 1.41091,-5.87723 4.49231,-6.4553 4.472788,-0.8391 9.260848,-5.092 11.544208,-10.2539 2.03073,-4.59081 2.51339,-4.79952 7.675721,-3.31898 4.3824,1.25687 8.59841,-0.47918 13.321521,-5.48542 3.55709,-3.77033 3.57079,-3.77474 8.14891,-2.62196 6.44994,1.62412 11.982591,-0.61862 14.708791,-5.96242 1.92734,-3.7779 2.05211,-3.84147 6.37605,-3.24881 3.53491,0.48451 5.002561,0.18273 7.394501,-1.52048 3.54634,-2.52522 5.4722,-2.67735 7.22082,-0.57038 3.352135,4.03908 10.922515,5.90351 15.761365,3.88171 5.13369,-2.14499 5.834,-1.8703 8.8329,3.4646 2.76583,4.92031 6.65865,8.09909 9.91833,8.09909 0.96213,0 3.44797,-1.83997 5.5241,-4.08882 l 3.77478,-4.08882 1.55707,3.01103 c 0.85638,1.65608 2.28394,5.18354 3.17234,7.83883 3.47368,10.38229 9.30406,12.23545 16.78881,5.33624 4.05657,-3.7392 4.42667,-3.88146 5.85435,-2.25 1.59124,1.81836 8.58715,23.50728 10.82352,33.55538 2.04225,9.17592 9.00027,12.57861 15.4106,7.53625 2.25756,-1.7758 2.88946,-1.90632 3.63127,-0.75 1.77405,2.76535 2.93328,8.55343 3.48484,17.39992 1.22317,19.61837 4.51037,22.55242 31.92042,28.49115 23.07529,4.99955 56.83224,18.92194 69.86658,28.81509 31.92896,24.2343 50.64671,33.45285 83.63343,41.18972 29.10678,6.82685 56.74446,19.18265 71.09826,31.78546 4.4709,3.92552 7.71806,10.70092 6.24652,13.03379 -0.57008,0.90377 -4.80272,3.80771 -9.40585,6.4532 -4.60313,2.64549 -8.72744,5.35485 -9.16512,6.0208 -0.43769,0.66594 -0.67835,2.77761 -0.5348,4.6926 0.20742,2.76709 0.81381,3.67499 2.95414,4.42304 2.27264,0.7943 4.33828,0.14142 13.2291,-4.18125 9.42964,-4.58465 10.69564,-4.96283 12.05685,-3.60163 0.83649,0.8365 1.5209,2.19335 1.5209,3.01522 0,6.25196 -16.20686,22.13914 -31.98495,31.35404 -9.19639,5.37098 -49.24205,22.88994 -67.51505,29.53613 -22.3941,8.14508 -26.6577,9.4095 -37,10.97271 -6.75949,1.02168 -13.50576,2.7564 -17.5,4.49993 -10.31074,4.50072 -27.71609,10.85728 -31.77992,11.60624 -2.04605,0.37708 -5.48643,1.3028 -7.6453,2.05716 -2.15886,0.75435 -12.05886,2.98968 -22,4.9674 -11.19136,2.22644 -20.35977,4.64906 -24.07479,6.36142 -8.43009,3.88566 -17.04704,13.07281 -22.98675,24.50781 -2.57118,4.95 -6.35054,10.8 -8.39855,13 -4.50118,4.83521 -11.21553,13.05412 -16.74727,20.50001 -2.24735,3.025 -7.18707,8.7625 -10.97716,12.75 -7.67597,8.07579 -10.17388,8.91429 -13.71594,4.6042 -5.80344,-7.0618 -7.50818,-8.3542 -11.01967,-8.3542 -2.49799,0 -4.73745,0.9947 -7.82692,3.47649 -2.38026,1.91207 -8.15274,5.48772 -12.82774,7.94588 -4.675,2.45816 -9.85,5.39078 -11.5,6.51692 -3.80503,2.59697 -4.1161,2.57625 -6.06912,-0.40443 z"
       id="path4147"
       inkscape:connector-curvature="0" />
  </g>
</svg>
